<svg xmlns="http://www.w3.org/2000/svg" width="640" height="360" viewBox="0 0 640 360" fill="none" aria-hidden="true">
  <defs>
    <linearGradient id="april-bg" x1="0" y1="0" x2="640" y2="360" gradientUnits="userSpaceOnUse">
      <stop stop-color="#E8ECF2"/>
      <stop offset="0.45" stop-color="#DCE3EE"/>
      <stop offset="1" stop-color="#D0D8E6"/>
    </linearGradient>
    <linearGradient id="april-scrim" x1="320" y1="200" x2="320" y2="310" gradientUnits="userSpaceOnUse">
      <stop stop-color="#1E293B" stop-opacity="0.55"/>
      <stop offset="1" stop-color="#0F172A" stop-opacity="0.72"/>
    </linearGradient>
    <filter id="april-blur" x="-20" y="-20" width="360" height="200" filterUnits="userSpaceOnUse" color-interpolation-filters="sRGB">
      <feGaussianBlur stdDeviation="4"/>
    </filter>
  </defs>
  <rect width="640" height="360" fill="url(#april-bg)"/>
  <rect x="32" y="32" width="576" height="296" rx="20" fill="#F8FAFC" stroke="#CBD5E1" stroke-width="1"/>
  <!-- Media frame -->
  <rect x="72" y="72" width="320" height="200" rx="12" fill="#94A3B8" opacity="0.35"/>
  <rect x="72" y="72" width="320" height="200" rx="12" fill="url(#april-scrim)"/>
  <circle cx="232" cy="172" r="36" fill="#F1F5F9" fill-opacity="0.15" filter="url(#april-blur)"/>
  <path d="M224 152 L268 172 L224 192Z" fill="#F8FAFC" fill-opacity="0.92"/>
  <!-- Buttons row -->
  <rect x="424" y="88" width="112" height="36" rx="8" fill="#2563EB"/>
  <rect x="424" y="136" width="112" height="36" rx="8" fill="#F1F5F9" stroke="#64748B" stroke-width="1.5"/>
  <rect x="424" y="184" width="112" height="36" rx="8" fill="#E2E8F0" stroke="#94A3B8" stroke-width="1.5"/>
  <!-- Pagination -->
  <g transform="translate(104 292)">
    <rect x="0" y="0" width="28" height="8" rx="4" fill="#CBD5E1"/>
    <circle cx="44" cy="4" r="4" fill="#CBD5E1"/>
    <circle cx="60" cy="4" r="4" fill="#CBD5E1"/>
    <circle cx="76" cy="4" r="4" fill="#CBD5E1"/>
    <circle cx="92" cy="4" r="4" fill="#2563EB"/>
    <circle cx="108" cy="4" r="4" fill="#CBD5E1"/>
  </g>
  <!-- File-type chips -->
  <g transform="translate(424 244)">
    <rect x="0" y="0" width="56" height="40" rx="6" fill="#EFF6FF" stroke="#3B82F6" stroke-width="1"/>
    <rect x="68" y="0" width="56" height="40" rx="6" fill="#FFF7ED" stroke="#EA580C" stroke-width="1"/>
    <rect x="136" y="0" width="56" height="40" rx="6" fill="#F0FDF4" stroke="#16A34A" stroke-width="1"/>
    <rect x="12" y="12" width="32" height="4" rx="1" fill="#3B82F6" opacity="0.5"/>
    <rect x="80" y="12" width="32" height="4" rx="1" fill="#EA580C" opacity="0.45"/>
    <rect x="148" y="12" width="32" height="4" rx="1" fill="#16A34A" opacity="0.45"/>
  </g>
</svg>
